<svg width="140" height="40" viewBox="0 0 140 40" fill="none" xmlns="http://www.w3.org/2000/svg">
<rect width="140" height="40" fill="white"/>
<path d="M22.4976 9.94868L24.4094 27.5111C24.7659 30.8486 25.2519 31.1727 26.5156 31.2699L26.224 32.2744H18.3501L18.6417 31.2699C21.1043 31.1727 22.2384 30.881 21.9468 27.9L21.6228 24.9513H13.1008L10.865 28.1916C10.2493 29.0989 9.99007 29.7145 9.99007 30.1682C9.99007 30.9782 10.865 31.2051 12.4527 31.2699L12.1287 32.2744H5L5.29163 31.2699C6.68496 31.1727 7.20341 30.8486 9.40681 27.7055L20.2942 12.2493L20.035 9.94868H22.4976ZM20.4887 14.2907L14.0404 23.5904H21.4931L20.4887 14.2907Z" fill="black"/>
<path d="M41.0469 21.9054V29.0665C41.0469 30.881 41.3385 31.2375 43.3151 31.3995V32.2744H36.3808V31.3995C38.3898 31.2375 38.6814 30.9458 38.6814 29.0665V22.4562C38.6814 19.9936 37.5473 18.6975 35.5059 18.6975C33.983 18.6975 32.7193 19.378 31.4556 20.9333V29.0665C31.4556 30.881 31.7796 31.2375 33.8534 31.3995V32.2744H26.6923V31.3995C28.7661 31.2375 29.0901 30.881 29.0901 29.0665V20.6093C29.0901 18.7623 28.7013 18.4383 26.6923 18.4383V17.693L30.6455 16.7209H31.4556V19.6372C32.6221 17.6282 34.2422 16.5265 36.3484 16.5265C39.2971 16.5265 41.0469 18.4383 41.0469 21.9054Z" fill="black"/>
<path d="M45.497 13.837C44.3629 13.837 43.5528 13.027 43.5528 11.8929C43.5528 10.7588 44.3629 9.94868 45.497 9.94868C46.5987 9.94868 47.4087 10.7588 47.4087 11.8929C47.4087 13.027 46.5987 13.837 45.497 13.837ZM49.1909 32.2744H41.9002V31.3995C44.0388 31.2375 44.3629 30.881 44.3629 29.0665V20.6093C44.3629 18.7623 44.0064 18.4383 41.9002 18.4383V17.693L45.9182 16.7209H46.7283V29.0665C46.7283 30.881 47.0523 31.2375 49.1909 31.3995V32.2744Z" fill="black"/>
<path d="M59.406 7C60.7237 7 61.7822 7.33483 62.5815 8.00449C63.4023 8.67416 63.8128 9.55984 63.8128 10.6615C63.8128 11.18 63.7156 11.6228 63.5212 11.9901C63.3267 12.3357 63.0675 12.5409 62.7435 12.6057C62.3762 11.7848 61.8686 11.1476 61.2205 10.6939C60.5725 10.2187 59.838 9.98108 59.0171 9.98108C58.0234 9.98108 57.2026 10.3159 56.5545 10.9856C55.928 11.6336 55.6148 12.4761 55.6148 13.513C55.6148 14.6147 55.982 15.2844 56.7165 15.522C57.235 15.6948 57.667 15.8568 58.0126 16.008C58.3583 16.1377 58.6283 16.2889 58.8227 16.4617C59.0171 16.6129 59.1467 16.7857 59.2115 16.9801C59.298 17.153 59.3412 17.369 59.3412 17.6282C59.3412 18.1034 59.2007 18.4707 58.9199 18.7299C58.6607 18.9891 58.2827 19.1187 57.7858 19.1187C57.3322 19.1187 56.9649 19.0215 56.6841 18.8271C56.4033 18.6327 56.1441 18.4275 55.9064 18.2115C55.6688 17.9738 55.4204 17.7578 55.1612 17.5634C54.9019 17.369 54.5779 17.2718 54.1891 17.2718C53.433 17.2718 52.8065 17.6498 52.3097 18.4059C51.8129 19.1403 51.5644 20.0692 51.5644 21.1925C51.5644 22.3158 51.8021 23.3635 52.2773 24.3356C52.7741 25.3077 53.4438 26.161 54.2863 26.8955C55.1504 27.6083 56.1549 28.17 57.2998 28.5804C58.4447 28.9909 59.676 29.1961 60.9937 29.1961C62.2034 29.1961 63.3483 29.0017 64.4284 28.6128C65.5301 28.224 66.4914 27.6947 67.3123 27.0251C68.1332 26.3554 68.7812 25.5777 69.2565 24.6921C69.7317 23.8064 69.9694 22.8667 69.9694 21.873C69.9694 21.2033 69.8505 20.5769 69.6129 19.9936C69.3753 19.3888 69.0513 18.8703 68.6408 18.4383C68.252 18.0062 67.7768 17.6714 67.2151 17.4338C66.675 17.1746 66.081 17.0449 65.4329 17.0449C64.3744 17.0449 63.5212 17.315 62.8731 17.855C62.225 18.3735 61.901 19.0755 61.901 19.9612C61.901 20.6093 62.063 21.1601 62.387 21.6138C62.7327 22.0458 63.1539 22.2618 63.6508 22.2618C64.1476 22.2618 64.396 22.0026 64.396 21.4842C64.396 21.3329 64.3852 21.1709 64.3636 20.9981C64.342 20.8037 64.3312 20.6309 64.3312 20.4797C64.3312 20.1124 64.45 19.81 64.6877 19.5724C64.9253 19.3132 65.2277 19.1835 65.5949 19.1835C66.0486 19.1835 66.4374 19.378 66.7615 19.7668C67.0855 20.1556 67.2475 20.6309 67.2475 21.1925C67.2475 21.5814 67.1611 21.9486 66.9883 22.2942C66.8155 22.6183 66.5778 22.9099 66.2754 23.1691C65.973 23.4067 65.6166 23.6012 65.2061 23.7524C64.7957 23.9036 64.3636 23.9792 63.91 23.9792C63.3915 23.9792 62.9055 23.882 62.4519 23.6876C62.0198 23.4715 61.6418 23.1799 61.3177 22.8127C61.0153 22.4454 60.7669 22.0134 60.5725 21.5166C60.3997 20.9981 60.3133 20.4365 60.3133 19.8316C60.3133 19.0539 60.4645 18.3411 60.7669 17.693C61.0909 17.0449 61.523 16.4941 62.063 16.0404C62.6247 15.5652 63.2835 15.198 64.0396 14.9387C64.8173 14.6795 65.6706 14.5499 66.5994 14.5499H70.0018C71.2979 14.5499 72.3348 14.2799 73.1125 13.7398C73.8901 13.1998 74.279 12.4761 74.279 11.5688C74.279 11.0072 74.1061 10.5211 73.7605 10.1107C73.4149 9.67865 73.0261 9.46263 72.594 9.46263C72.2268 9.46263 72 9.58144 71.9135 9.81906C71.8271 10.0567 71.7515 10.3159 71.6867 10.5967C71.6219 10.856 71.5031 11.1044 71.3303 11.342C71.1791 11.5796 70.8334 11.6984 70.2934 11.6984C69.7749 11.6984 69.3645 11.558 69.0621 11.2772C68.7812 10.9748 68.6408 10.5643 68.6408 10.0459C68.6408 9.33302 68.9109 8.77137 69.4509 8.36093C69.991 7.92889 70.7254 7.71287 71.6543 7.71287C72.324 7.71287 72.9396 7.83168 73.5013 8.0693C74.0845 8.30692 74.5814 8.63095 74.9918 9.04139C75.4023 9.45183 75.7263 9.94868 75.9639 10.5319C76.2015 11.0936 76.3204 11.7092 76.3204 12.3789C76.3204 13.135 76.1583 13.837 75.8343 14.4851C75.5319 15.1116 75.0998 15.6624 74.5382 16.1377C73.9981 16.6129 73.3393 16.9909 72.5616 17.2718C71.8055 17.531 70.9739 17.6714 70.0666 17.693L70.0018 17.8226C70.5634 18.1682 71.0171 18.7839 71.3627 19.6696C71.7299 20.5553 71.9135 21.549 71.9135 22.6507C71.9135 24.0332 71.6003 25.3293 70.9739 26.539C70.369 27.7487 69.5373 28.8072 68.4788 29.7145C67.4203 30.6002 66.1674 31.3023 64.7201 31.8207C63.2727 32.3392 61.7282 32.5984 60.0864 32.5984C58.4663 32.5984 56.9649 32.35 55.5824 31.8531C54.1999 31.3563 53.001 30.6758 51.9857 29.8117C50.9704 28.9477 50.1711 27.9324 49.5878 26.7659C49.0262 25.5777 48.7454 24.2924 48.7454 22.9099C48.7454 21.0089 49.2314 19.3996 50.2035 18.0818C51.1972 16.7425 52.5365 15.8568 54.2215 15.4248C54.0487 15.0576 53.9082 14.5931 53.8002 14.0315C53.7138 13.4482 53.6706 12.8974 53.6706 12.3789C53.6706 11.5796 53.811 10.856 54.0919 10.2079C54.3727 9.53824 54.7615 8.96578 55.2584 8.49054C55.7768 8.0153 56.3817 7.64806 57.0729 7.38884C57.7858 7.12961 58.5635 7 59.406 7Z" fill="black"/>
<path d="M85.1806 32.728C80.0285 32.728 75.3948 29.7793 75.3948 23.2339C75.3948 16.3969 79.9637 9.78666 88.5505 9.78666C92.9249 9.78666 94.221 11.1152 94.9015 11.1152C95.3227 11.1152 95.6143 10.7588 95.9708 10.0783H97.2021L97.1523 17.1097H95.8238C95.8886 16.4941 95.5845 16.5589 95.5845 16.1377C95.5845 12.3465 91.3371 11.1152 88.5829 11.1152C81.5838 11.1152 78.4731 17.4986 78.4731 23.4283C78.4731 29.1313 81.843 31.3995 85.2778 31.3995C88.4857 31.3995 90.6891 29.0341 92.536 24.5624H93.8646L92.0176 31.0107C90.041 32.0475 87.7404 32.728 85.1806 32.728Z" fill="black"/>
<path d="M107.541 21.9054V29.0665C107.541 30.881 107.833 31.2375 109.777 31.3995V32.2744H102.843V31.3995C104.884 31.2375 105.176 30.9458 105.176 29.0665V22.4562C105.176 19.9936 104.042 18.6975 102 18.6975C100.477 18.6975 99.246 19.378 97.9499 20.9009V29.1313C97.9499 30.9782 98.2739 31.2375 100.186 31.3995V32.2744H93.2514V31.3995C95.066 31.2375 95.5845 30.9782 95.5845 29.1313V13.1566C95.5845 11.4716 95.228 11.1476 93.2514 11.1476C93.2514 11.1476 93.481 10.6449 93.6523 10.7734C95.6523 12.2734 96.1523 9.27344 96.1523 9.27344L97.9499 9.26821V19.6372C99.084 17.6282 100.737 16.5265 102.843 16.5265C105.791 16.5265 107.541 18.4383 107.541 21.9054Z" fill="black"/>
<path d="M117.534 16.5265C118.766 16.5265 119.705 17.369 119.705 18.5355C119.705 19.702 118.863 20.5121 117.891 20.5121C116.66 20.5121 116.66 19.2159 115.72 18.8271C114.877 19.6048 113.873 21.1277 113.063 23.72V29.0665C113.063 30.9458 113.419 31.2375 115.979 31.3995V32.2744H108.364V31.3995C110.341 31.2375 110.697 30.8486 110.697 29.0665V20.6093C110.697 18.7623 110.309 18.4383 108.364 18.4383V17.693L112.253 16.7209H113.063V21.6786C113.873 19.2483 115.59 16.5265 117.534 16.5265Z" fill="black"/>
<path d="M121.695 13.837C120.561 13.837 119.751 13.027 119.751 11.8929C119.751 10.7588 120.561 9.94868 121.695 9.94868C122.796 9.94868 123.607 10.7588 123.607 11.8929C123.607 13.027 122.796 13.837 121.695 13.837ZM125.389 32.2744H118.098V31.3995C120.237 31.2375 120.561 30.881 120.561 29.0665V20.6093C120.561 18.7623 120.204 18.4383 118.098 18.4383V17.693L122.116 16.7209H122.926V29.0665C122.926 30.881 123.25 31.2375 125.389 31.3995V32.2744Z" fill="black"/>
<path d="M129.577 32.728C127.957 32.728 126.207 32.3392 124.878 31.6263L124.716 27.2519H125.98C126.336 30.2654 127.73 31.4967 129.836 31.4967C131.683 31.4967 132.817 30.6218 132.817 29.1961C132.817 27.9324 132.169 27.1547 130.516 26.4094L128.086 25.3077C125.948 24.368 124.781 22.9099 124.781 20.9009C124.781 18.1466 127.017 16.5265 130.29 16.5265C131.942 16.5265 133.627 16.9153 134.956 17.6282L135.118 21.4518H133.822C133.498 18.9891 132.234 17.7578 129.998 17.7578C128.248 17.7578 127.017 18.6327 127.017 20.0908C127.017 21.3545 127.697 22.1322 129.35 22.8775L131.78 23.9792C133.951 24.9513 135.053 26.215 135.053 28.2888C135.053 31.0431 132.914 32.728 129.577 32.728Z" fill="black"/>
</svg>
