<svg width="120" height="121" viewBox="0 0 120 121" fill="none" xmlns="http://www.w3.org/2000/svg">
<path d="M23.125 85.9556L22.1581 86.5125L11.8499 85.7177L14.7855 90.8149L13.537 91.5339L9.57961 84.6626L10.5465 84.1058L20.8547 84.9005L17.9191 79.8034L19.1676 79.0843L23.125 85.9556Z" fill="#B13710"/>
<path d="M13.5 73.4161L8.88006 74.954L8.36683 73.4123L16.2603 70.7846L16.7633 72.2955L15.3963 72.7505L15.4237 72.8327C15.9055 72.874 16.3536 73.0484 16.768 73.3557C17.1778 73.6607 17.4814 74.1096 17.6787 74.7023C17.8475 75.2093 17.8855 75.6952 17.7929 76.1599C17.6956 76.6223 17.4631 77.0384 17.0953 77.4082C16.7263 77.7746 16.2164 78.0662 15.5654 78.2829L10.5446 79.9543L10.0331 78.4177L14.8689 76.8079C15.4068 76.6288 15.7854 76.3372 16.0048 75.9331C16.2242 75.529 16.2546 75.0888 16.0961 74.6126C16.0003 74.3248 15.8331 74.0627 15.5946 73.8262C15.3549 73.5863 15.0581 73.4207 14.7041 73.3292C14.349 73.2343 13.9477 73.2632 13.5 73.4161Z" fill="#B13710"/>
<path d="M8.87096 63.901L9.33134 65.3188C9.15387 65.4055 8.99032 65.5268 8.84071 65.6826C8.6906 65.8348 8.57737 66.0292 8.50104 66.2659C8.4247 66.5026 8.40974 66.7873 8.45616 67.1199C8.51955 67.574 8.67438 67.9389 8.92065 68.2144C9.16334 68.4904 9.44383 68.6062 9.76211 68.5618C10.0375 68.5234 10.245 68.3905 10.3846 68.1632C10.5242 67.9359 10.616 67.5877 10.6599 67.1185L10.7776 65.7677C10.847 64.9851 11.0382 64.3824 11.351 63.9596C11.6639 63.5367 12.1118 63.2846 12.6947 63.2033C13.1882 63.1344 13.648 63.216 14.0742 63.4482C14.4963 63.6773 14.8518 64.0306 15.1408 64.5079C15.4294 64.9817 15.6201 65.5512 15.7129 66.2164C15.8417 67.139 15.75 67.9193 15.438 68.5571C15.1224 69.1954 14.6091 69.6317 13.898 69.8658L13.4456 68.3485C13.8363 68.1955 14.1143 67.9544 14.2798 67.625C14.4417 67.2962 14.489 66.8903 14.4216 66.4076C14.3482 65.8819 14.1805 65.4769 13.9184 65.1926C13.6528 64.9089 13.3608 64.7892 13.0425 64.8336C12.7851 64.8696 12.5822 64.9963 12.4339 65.2139C12.2851 65.4279 12.1935 65.7378 12.159 66.1437L12.0479 67.5811C11.98 68.3744 11.7804 68.9819 11.4491 69.4037C11.1174 69.8219 10.6583 70.0719 10.0718 70.1537C9.58544 70.2216 9.1409 70.1451 8.7382 69.9243C8.3355 69.7034 7.99878 69.3676 7.72805 68.9168C7.45375 68.4665 7.27342 67.9321 7.18707 67.3134C7.06279 66.4229 7.15807 65.695 7.47292 65.1297C7.78419 64.5649 8.25021 64.1554 8.87096 63.901Z" fill="#B13710"/>
<path d="M15.3147 59.0598C15.2944 59.5866 15.1785 60.0591 14.9673 60.4773C14.7524 60.8954 14.4525 61.2217 14.0676 61.4562C13.6829 61.6871 13.2181 61.792 12.6733 61.7709C12.2043 61.7528 11.8217 61.6477 11.5255 61.4556C11.2294 61.2635 10.9989 61.0107 10.8339 60.6972C10.669 60.3836 10.5487 60.0357 10.4731 59.6534C10.3976 59.271 10.3439 58.8823 10.3122 58.4872C10.2737 57.9871 10.2424 57.5811 10.2183 57.2694C10.1906 56.9576 10.1361 56.7297 10.055 56.5856C9.97382 56.4415 9.83581 56.3657 9.64097 56.3582L9.60309 56.3568C9.13042 56.3385 8.75904 56.4579 8.48894 56.7148C8.21898 56.9682 8.0739 57.3565 8.0537 57.8797C8.03267 58.4245 8.13696 58.8585 8.36659 59.1818C8.59274 59.5013 8.84965 59.7262 9.13732 59.8565L8.73221 61.364C8.23403 61.1641 7.83648 60.885 7.53956 60.5266C7.23916 60.1645 7.02738 59.7534 6.90422 59.2933C6.77744 58.8331 6.72374 58.3523 6.74311 57.8507C6.75592 57.5188 6.8092 57.1685 6.90293 56.7999C6.99319 56.4276 7.14742 56.0831 7.36562 55.7663C7.58397 55.4459 7.88841 55.1884 8.27895 54.9939C8.66589 54.7993 9.16244 54.7136 9.76861 54.7371L15.2891 54.9502L15.2281 56.5306L14.0915 56.4867L14.089 56.5516C14.2942 56.6644 14.4938 56.8293 14.6878 57.0463C14.8818 57.2634 15.0392 57.5387 15.16 57.8722C15.2808 58.2057 15.3324 58.6016 15.3147 59.0598ZM14.0293 58.6578C14.0466 58.2104 13.973 57.8246 13.8085 57.5002C13.6441 57.1723 13.4225 56.9198 13.1439 56.7428C12.8618 56.5621 12.5566 56.4654 12.2282 56.4527L11.1566 56.4113C11.2121 56.4713 11.2619 56.5852 11.306 56.7531C11.3467 56.9173 11.381 57.1047 11.409 57.3154C11.4334 57.5259 11.4562 57.731 11.4774 57.9305C11.495 58.13 11.5102 58.2968 11.5231 58.431C11.5507 58.7464 11.6063 59.0358 11.6901 59.2993C11.774 59.5591 11.9014 59.7699 12.0722 59.9319C12.2395 60.0902 12.4675 60.1748 12.7562 60.186C13.1567 60.2015 13.4655 60.0652 13.6826 59.7773C13.8961 59.4892 14.0117 59.1161 14.0293 58.6578Z" fill="#B13710"/>
<path d="M19.4168 50.9731C19.2732 51.6181 19.0651 52.1544 18.7924 52.582C18.5204 53.0061 18.2126 53.3334 17.8691 53.5639C17.5255 53.7945 17.172 53.9452 16.8085 54.0159L16.5506 52.5325C16.7268 52.4718 16.919 52.3814 17.127 52.2613C17.3393 52.1383 17.5377 51.9532 17.7223 51.7057C17.9076 51.4547 18.0489 51.1107 18.1462 50.6736C18.2796 50.0745 18.2435 49.5467 18.038 49.0904C17.8361 48.6348 17.4179 48.3364 16.7835 48.1952L15.1869 47.8398L15.1645 47.9403C15.316 48.0739 15.4775 48.2541 15.649 48.4809C15.8212 48.7042 15.9504 48.9882 16.0364 49.3329C16.1225 49.6776 16.1102 50.0984 15.9996 50.5954C15.8568 51.2369 15.5783 51.7815 15.1642 52.2295C14.7473 52.673 14.2113 52.9791 13.556 53.1477C12.898 53.312 12.1372 53.298 11.2736 53.1058C10.4101 52.9136 9.70252 52.6026 9.15083 52.1728C8.59992 51.7394 8.21784 51.229 8.00459 50.6414C7.78782 50.0531 7.752 49.4329 7.89713 48.7808C8.00931 48.2768 8.18451 47.8886 8.42273 47.6161C8.65742 47.3428 8.90501 47.1445 9.1655 47.0212C9.42677 46.8944 9.65259 46.8022 9.84295 46.7447L9.86884 46.6284L8.55241 46.3354L8.89719 44.7863L17.1976 46.6338C17.8955 46.7892 18.4321 47.0788 18.8076 47.5027C19.183 47.9266 19.4167 48.4391 19.5085 49.0403C19.6011 49.638 19.5706 50.2823 19.4168 50.9731ZM14.7661 49.9546C14.8673 49.4999 14.8471 49.0922 14.7054 48.7315C14.561 48.3664 14.3077 48.0585 13.9455 47.8077C13.5806 47.5526 13.1179 47.3627 12.5575 47.238C12.0112 47.1164 11.5121 47.0903 11.0601 47.1599C10.6081 47.2295 10.2309 47.3952 9.92842 47.6571C9.62245 47.9182 9.41808 48.2797 9.31531 48.7414C9.2094 49.2172 9.24451 49.6412 9.42062 50.0133C9.59322 50.3846 9.87118 50.6981 10.2545 50.9535C10.6386 51.2055 11.0898 51.3891 11.6079 51.5045C12.1401 51.6229 12.6251 51.6458 13.063 51.5731C13.5009 51.5004 13.868 51.3306 14.1641 51.0636C14.4611 50.793 14.6618 50.4234 14.7661 49.9546Z" fill="#B13710"/>
<path d="M18.9339 42.3807C18.6062 43.132 18.1634 43.7091 17.6056 44.1118C17.0459 44.5098 16.4089 44.7283 15.6946 44.7673C14.9784 44.8015 14.2249 44.6461 13.4338 44.3011C12.6528 43.9604 12.0279 43.5144 11.5592 42.9633C11.092 42.4089 10.806 41.7956 10.7013 41.1236C10.598 40.4482 10.7008 39.7564 11.0098 39.0481C11.1975 38.6179 11.4506 38.2319 11.769 37.8902C12.0875 37.5485 12.469 37.2836 12.9135 37.0954C13.358 36.9071 13.864 36.8265 14.4313 36.8534C14.9954 36.8788 15.6233 37.0424 16.315 37.3442L16.8412 37.5737L14.197 43.6353L13.085 43.1502L15.0947 38.5432C14.7041 38.3729 14.3236 38.3014 13.9531 38.3289C13.5794 38.3549 13.2419 38.4737 12.9409 38.6851C12.6414 38.8932 12.4078 39.1892 12.2404 39.5731C12.0584 39.9901 12.0022 40.399 12.0717 40.7996C12.1393 41.1954 12.3002 41.5492 12.5542 41.861C12.8063 42.1679 13.1227 42.4044 13.5033 42.5705L14.3721 42.9495C14.8818 43.1718 15.3543 43.2716 15.7897 43.2488C16.2266 43.2227 16.6101 43.0886 16.9402 42.8465C17.2671 42.603 17.525 42.2645 17.7142 41.8309C17.8369 41.5496 17.9091 41.2758 17.9307 41.0095C17.949 40.7417 17.9139 40.4881 17.8254 40.2485C17.7368 40.009 17.5929 39.7926 17.3936 39.5992L18.2596 38.3048C18.6243 38.5977 18.8986 38.9577 19.0827 39.3847C19.2648 39.8069 19.3467 40.274 19.3282 40.7859C19.3079 41.2931 19.1764 41.8247 18.9339 42.3807Z" fill="#B13710"/>
<path d="M17.9827 33.2672L22.0503 36.0698L21.1315 37.4033L14.2808 32.6832L15.1627 31.4031L16.2778 32.1714L16.3362 32.0867C16.082 31.6791 15.9606 31.2316 15.9721 30.744C15.9856 30.2534 16.1696 29.7509 16.524 29.2365C16.8456 28.7697 17.2254 28.4285 17.6634 28.2128C18.0984 27.9951 18.5743 27.9218 19.0911 27.9928C19.6078 28.0638 20.1486 28.2939 20.7136 28.6831L25.0711 31.6855L24.1523 33.019L19.9553 30.1273C19.4588 29.7852 18.9816 29.6472 18.5239 29.7133C18.0632 29.7774 17.6771 30.0354 17.3657 30.4874C17.1527 30.7966 17.0301 31.1177 16.9979 31.4508C16.9678 31.7808 17.034 32.1048 17.1964 32.4228C17.3579 32.7358 17.62 33.0172 17.9827 33.2672Z" fill="#B13710"/>
<path d="M34.6379 22.8927L33.105 23.7907L30.9426 12.2018L32.611 11.2245L41.6621 18.778L40.1292 19.676L32.835 13.4284L32.7602 13.4722L34.6379 22.8927ZM32.6993 18.994L37.6719 16.0812L38.3837 17.2963L33.4111 20.2091L32.6993 18.994Z" fill="#B13710"/>
<path d="M42.7093 18.4725L39.2057 7.94784L40.7422 7.43632L42.0441 11.3471L42.1366 11.3163C42.171 11.1222 42.2361 10.8893 42.3322 10.6176C42.4282 10.3458 42.5984 10.0799 42.8429 9.81961C43.0862 9.55594 43.4528 9.34256 43.9427 9.17947C44.58 8.96733 45.2023 8.93903 45.8097 9.09456C46.4171 9.25009 46.9639 9.58373 47.4501 10.0955C47.9398 10.6061 48.3266 11.2879 48.6106 12.141C48.8946 12.994 48.9959 13.7728 48.9145 14.4773C48.8321 15.1784 48.5972 15.776 48.2099 16.2703C47.8215 16.7612 47.3086 17.1126 46.6714 17.3248C46.1918 17.4844 45.7727 17.5345 45.4142 17.475C45.0591 17.4143 44.76 17.3046 44.5168 17.1458C44.2737 16.987 44.0779 16.839 43.9295 16.702L43.801 16.7447L44.2099 17.9729L42.7093 18.4725ZM42.9012 14.0245C43.0859 14.5795 43.3284 15.0392 43.6286 15.4036C43.9287 15.7679 44.2706 16.0176 44.6542 16.1524C45.0367 16.2839 45.4489 16.2761 45.8908 16.129C46.3499 15.9761 46.6932 15.7268 46.9205 15.3809C47.1467 15.0316 47.2685 14.62 47.2858 14.1461C47.3066 13.6711 47.2291 13.1698 47.0535 12.6422C46.8801 12.1215 46.6456 11.68 46.35 11.318C46.0579 10.9547 45.716 10.7051 45.3244 10.5691C44.9362 10.4319 44.5109 10.4403 44.0484 10.5943C43.603 10.7425 43.2643 10.9828 43.0324 11.3149C42.8039 11.646 42.6793 12.0433 42.6586 12.5069C42.6378 12.9705 42.7187 13.4763 42.9012 14.0245Z" fill="#B13710"/>
<path d="M56.2377 8.87096L54.82 9.33134C54.7332 9.15387 54.6119 8.99032 54.4562 8.84071C54.304 8.6906 54.1095 8.57737 53.8728 8.50104C53.6361 8.4247 53.3515 8.40974 53.0189 8.45616C52.5647 8.51955 52.1999 8.67438 51.9243 8.92065C51.6483 9.16334 51.5325 9.44382 51.5769 9.7621C51.6154 10.0375 51.7482 10.245 51.9756 10.3846C52.2029 10.5242 52.5511 10.616 53.0202 10.6599L54.371 10.7776C55.1536 10.847 55.7564 11.0382 56.1792 11.351C56.602 11.6639 56.8541 12.1118 56.9355 12.6947C57.0044 13.1882 56.9227 13.648 56.6905 14.0742C56.4614 14.4963 56.1082 14.8518 55.6308 15.1408C55.157 15.4294 54.5875 15.6201 53.9224 15.7129C52.9997 15.8417 52.2195 15.75 51.5816 15.438C50.9433 15.1224 50.5071 14.6091 50.273 13.898L51.7903 13.4456C51.9432 13.8363 52.1844 14.1143 52.5137 14.2798C52.8426 14.4417 53.2484 14.489 53.7312 14.4216C54.2569 14.3482 54.6619 14.1805 54.9461 13.9184C55.2299 13.6528 55.3496 13.3608 55.3051 13.0425C55.2692 12.7851 55.1424 12.5822 54.9249 12.4339C54.7109 12.2851 54.4009 12.1935 53.9951 12.159L52.5577 12.0479C51.7644 11.98 51.1568 11.7804 50.7351 11.4491C50.3169 11.1174 50.0669 10.6583 49.985 10.0718C49.9171 9.58544 49.9936 9.1409 50.2145 8.7382C50.4354 8.33549 50.7712 7.99878 51.222 7.72805C51.6722 7.45375 52.2067 7.27342 52.8254 7.18707C53.7158 7.06279 54.4437 7.15807 55.009 7.47292C55.5738 7.78419 55.9834 8.25021 56.2377 8.87096Z" fill="#B13710"/>
<path d="M61.0787 15.3147C60.5519 15.2944 60.0794 15.1785 59.6612 14.9673C59.2431 14.7524 58.9168 14.4525 58.6823 14.0676C58.4515 13.6829 58.3466 13.2181 58.3676 12.6733C58.3857 12.2043 58.4908 11.8217 58.6829 11.5255C58.875 11.2294 59.1278 10.9989 59.4414 10.8339C59.7549 10.669 60.1028 10.5487 60.4852 10.4731C60.8675 10.3976 61.2562 10.3439 61.6513 10.3122C62.1515 10.2737 62.5574 10.2424 62.8691 10.2183C63.1809 10.1906 63.4089 10.1361 63.5529 10.055C63.697 9.97382 63.7728 9.83581 63.7803 9.64097L63.7818 9.60309C63.8 9.13042 63.6807 8.75904 63.4237 8.48894C63.1703 8.21898 62.7821 8.0739 62.2589 8.0537C61.714 8.03267 61.28 8.13696 60.9568 8.36659C60.6373 8.59274 60.4123 8.84965 60.282 9.13732L58.7745 8.73221C58.9744 8.23403 59.2536 7.83648 59.6119 7.53956C59.974 7.23916 60.3851 7.02738 60.8452 6.90422C61.3054 6.77744 61.7863 6.72374 62.2878 6.74311C62.6197 6.75592 62.97 6.8092 63.3386 6.90293C63.7109 6.99319 64.0555 7.14742 64.3723 7.36562C64.6927 7.58397 64.9501 7.88841 65.1446 8.27895C65.3393 8.66589 65.4249 9.16245 65.4015 9.76862L65.1883 15.2891L63.6079 15.2281L63.6518 14.0915L63.5869 14.089C63.4742 14.2942 63.3093 14.4938 63.0922 14.6878C62.8751 14.8818 62.5998 15.0392 62.2663 15.16C61.9328 15.2808 61.537 15.3324 61.0787 15.3147ZM61.4807 14.0293C61.9281 14.0466 62.314 13.973 62.6383 13.8085C62.9663 13.6441 63.2187 13.4225 63.3957 13.1439C63.5765 12.8618 63.6732 12.5566 63.6858 12.2282L63.7272 11.1566C63.6672 11.2121 63.5533 11.2619 63.3854 11.306C63.2212 11.3467 63.0338 11.381 62.8231 11.409C62.6126 11.4334 62.4075 11.4562 62.208 11.4774C62.0086 11.495 61.8417 11.5102 61.7075 11.5231C61.3921 11.5507 61.1027 11.6063 60.8393 11.6901C60.5795 11.774 60.3686 11.9014 60.2066 12.0722C60.0484 12.2395 59.9637 12.4675 59.9525 12.7562C59.9371 13.1567 60.0733 13.4655 60.3612 13.6826C60.6493 13.8961 61.0225 14.0117 61.4807 14.0293Z" fill="#B13710"/>
<path d="M69.1656 19.4166C68.5206 19.273 67.9843 19.0648 67.5567 18.7921C67.1327 18.5202 66.8053 18.2124 66.5748 17.8689C66.3442 17.5253 66.1935 17.1718 66.1228 16.8083L67.6062 16.5503C67.6669 16.7266 67.7573 16.9187 67.8775 17.1267C68.0004 17.339 68.1856 17.5375 68.433 17.722C68.684 17.9074 69.028 18.0487 69.4651 18.1459C70.0642 18.2793 70.592 18.2433 71.0484 18.0378C71.5039 17.8359 71.8023 17.4177 71.9435 16.7833L72.2989 15.1866L72.1984 15.1643C72.0648 15.3158 71.8846 15.4773 71.6578 15.6487C71.4345 15.821 71.1505 15.9501 70.8058 16.0362C70.4611 16.1222 70.0403 16.1099 69.5433 15.9993C68.9019 15.8566 68.3572 15.5781 67.9093 15.164C67.4657 14.7471 67.1596 14.211 66.991 13.5557C66.8267 12.8977 66.8407 12.1369 67.0329 11.2734C67.2251 10.4099 67.5361 9.70228 67.9659 9.15059C68.3993 8.59968 68.9097 8.2176 69.4973 8.00435C70.0856 7.78758 70.7058 7.75176 71.3579 7.89689C71.8619 8.00907 72.2502 8.18427 72.5227 8.42249C72.796 8.65718 72.9942 8.90477 73.1175 9.16526C73.2443 9.42653 73.3365 9.65235 73.394 9.84271L73.5103 9.8686L73.8033 8.55217L75.3524 8.89695L73.5049 17.1974C73.3495 17.8952 73.0599 18.4319 72.636 18.8073C72.2121 19.1828 71.6996 19.4164 71.0984 19.5083C70.5007 19.6009 69.8564 19.5703 69.1656 19.4166ZM70.1841 14.7659C70.6388 14.8671 71.0465 14.8468 71.4073 14.7052C71.7723 14.5608 72.0803 14.3075 72.331 13.9453C72.5861 13.5804 72.776 13.1177 72.9008 12.5573C73.0224 12.011 73.0484 11.5118 72.9788 11.0598C72.9093 10.6078 72.7435 10.2306 72.4816 9.92818C72.2205 9.62221 71.8591 9.41784 71.3973 9.31507C70.9215 9.20916 70.4975 9.24427 70.1254 9.42038C69.7541 9.59298 69.4407 9.87094 69.1852 10.2543C68.9332 10.6384 68.7496 11.0895 68.6342 11.6076C68.5158 12.1399 68.4929 12.6249 68.5656 13.0628C68.6383 13.5007 68.8082 13.8677 69.0752 14.1639C69.3457 14.4609 69.7153 14.6615 70.1841 14.7659Z" fill="#B13710"/>
<path d="M77.7579 18.9331C77.0066 18.6053 76.4296 18.1626 76.0268 17.6048C75.6288 17.0451 75.4103 16.4081 75.3713 15.6938C75.3371 14.9776 75.4925 14.224 75.8375 13.433C76.1783 12.652 76.6242 12.0271 77.1753 11.5584C77.7297 11.0911 78.343 10.8052 79.015 10.7005C79.6904 10.5972 80.3822 10.7 81.0905 11.009C81.5207 11.1967 81.9067 11.4497 82.2484 11.7682C82.5901 12.0867 82.855 12.4681 83.0433 12.9127C83.2315 13.3572 83.3121 13.8632 83.2852 14.4305C83.2598 14.9946 83.0962 15.6225 82.7944 16.3142L82.5649 16.8404L76.5033 14.1962L76.9884 13.0841L81.5954 15.0939C81.7658 14.7033 81.8372 14.3228 81.8097 13.9523C81.7837 13.5785 81.665 13.2411 81.4535 12.9401C81.2454 12.6405 80.9494 12.407 80.5655 12.2395C80.1485 12.0576 79.7397 12.0014 79.339 12.0709C78.9432 12.1385 78.5894 12.2993 78.2777 12.5534C77.9707 12.8055 77.7342 13.1219 77.5682 13.5025L77.1892 14.3713C76.9668 14.881 76.8671 15.3535 76.8899 15.7889C76.916 16.2258 77.05 16.6093 77.2921 16.9394C77.5356 17.2662 77.8741 17.5242 78.3077 17.7134C78.589 17.8361 78.8628 17.9082 79.1291 17.9299C79.3969 17.9482 79.6506 17.9131 79.8901 17.8245C80.1296 17.736 80.3461 17.5921 80.5394 17.3928L81.8339 18.2588C81.5409 18.6234 81.1809 18.8978 80.7539 19.0818C80.3317 19.264 79.8646 19.3459 79.3527 19.3274C78.8455 19.3071 78.3139 19.1756 77.7579 18.9331Z" fill="#B13710"/>
<path d="M86.8716 17.9827L84.069 22.0503L82.7354 21.1315L87.4556 14.2808L88.7356 15.1627L87.9674 16.2778L88.0521 16.3361C88.4596 16.082 88.9072 15.9606 89.3948 15.9721C89.8854 15.9856 90.3878 16.1696 90.9022 16.524C91.3691 16.8456 91.7103 17.2254 91.9259 17.6634C92.1436 18.0984 92.217 18.5743 92.146 19.0911C92.075 19.6078 91.8449 20.1486 91.4556 20.7136L88.4533 25.0711L87.1197 24.1523L90.0114 19.9553C90.3535 19.4587 90.4915 18.9816 90.4254 18.5239C90.3614 18.0632 90.1034 17.6771 89.6514 17.3657C89.3422 17.1526 89.021 17.03 88.688 16.9979C88.3579 16.9678 88.0339 17.034 87.7159 17.1964C87.403 17.3578 87.1215 17.62 86.8716 17.9827Z" fill="#B13710"/>
<path d="M96.8757 34.1847L97.8425 33.6278L108.151 34.4226L105.215 29.3254L106.464 28.6064L110.421 35.4777L109.454 36.0345L99.1459 35.2398L102.082 40.3369L100.833 41.056L96.8757 34.1847Z" fill="#B13710"/>
<path d="M106.501 46.7242L111.121 45.1863L111.634 46.728L103.74 49.3557L103.237 47.8448L104.604 47.3898L104.577 47.3075C104.095 47.2662 103.647 47.0919 103.233 46.7846C102.823 46.4796 102.519 46.0307 102.322 45.438C102.153 44.931 102.115 44.4451 102.208 43.9804C102.305 43.518 102.538 43.1019 102.905 42.7321C103.274 42.3657 103.784 42.0741 104.435 41.8574L109.456 40.186L109.968 41.7226L105.132 43.3324C104.594 43.5115 104.215 43.8031 103.996 44.2072C103.776 44.6113 103.746 45.0515 103.905 45.5277C104 45.8155 104.168 46.0776 104.406 46.3141C104.646 46.554 104.943 46.7196 105.297 46.8111C105.652 46.906 106.053 46.8771 106.501 46.7242Z" fill="#B13710"/>
<path d="M111.13 56.2393L110.669 54.8215C110.847 54.7347 111.01 54.6135 111.16 54.4577C111.31 54.3055 111.423 54.1111 111.5 53.8744C111.576 53.6377 111.591 53.353 111.545 53.0204C111.481 52.5663 111.326 52.2014 111.08 51.9259C110.837 51.6499 110.557 51.5341 110.239 51.5785C109.963 51.6169 109.756 51.7498 109.616 51.9771C109.476 52.2044 109.385 52.5526 109.341 53.0218L109.223 54.3726C109.154 55.1552 108.963 55.7579 108.65 56.1807C108.337 56.6036 107.889 56.8557 107.306 56.937C106.812 57.0059 106.353 56.9243 105.926 56.6921C105.504 56.463 105.149 56.1097 104.86 55.6323C104.571 55.1586 104.381 54.5891 104.288 53.9239C104.159 53.0013 104.251 52.221 104.563 51.5832C104.878 50.9449 105.392 50.5086 106.103 50.2745L106.555 51.7918C106.164 51.9448 105.886 52.1859 105.721 52.5153C105.559 52.8441 105.512 53.25 105.579 53.7327C105.652 54.2584 105.82 54.6634 106.082 54.9477C106.348 55.2314 106.64 55.3511 106.958 55.3067C107.216 55.2707 107.418 55.144 107.567 54.9264C107.716 54.7124 107.807 54.4025 107.842 53.9966L107.953 52.5592C108.021 51.7659 108.22 51.1584 108.552 50.7366C108.883 50.3184 109.342 50.0684 109.929 49.9866C110.415 49.9187 110.86 49.9952 111.262 50.216C111.665 50.4369 112.002 50.7727 112.273 51.2235C112.547 51.6738 112.727 52.2082 112.814 52.8269C112.938 53.7174 112.843 54.4453 112.528 55.0106C112.216 55.5754 111.75 55.9849 111.13 56.2393Z" fill="#B13710"/>
<path d="M104.686 61.0805C104.706 60.5537 104.822 60.0812 105.033 59.663C105.248 59.2449 105.548 58.9186 105.933 58.6841C106.318 58.4532 106.783 58.3483 107.327 58.3694C107.796 58.3875 108.179 58.4926 108.475 58.6847C108.771 58.8768 109.002 59.1296 109.167 59.4431C109.332 59.7567 109.452 60.1046 109.528 60.4869C109.603 60.8693 109.657 61.258 109.688 61.6531C109.727 62.1532 109.758 62.5592 109.782 62.8709C109.81 63.1827 109.865 63.4106 109.946 63.5547C110.027 63.6988 110.165 63.7746 110.36 63.7821L110.398 63.7835C110.87 63.8018 111.242 63.6824 111.512 63.4255C111.782 63.1721 111.927 62.7838 111.947 62.2606C111.968 61.7158 111.864 61.2818 111.634 60.9585C111.408 60.639 111.151 60.4141 110.863 60.2837L111.268 58.7763C111.767 58.9762 112.164 59.2553 112.461 59.6137C112.762 59.9758 112.973 60.3869 113.096 60.847C113.223 61.3072 113.277 61.788 113.258 62.2896C113.245 62.6215 113.191 62.9718 113.098 63.3403C113.007 63.7127 112.853 64.0572 112.635 64.374C112.417 64.6944 112.112 64.9519 111.722 65.1464C111.335 65.341 110.838 65.4266 110.232 65.4032L104.712 65.1901L104.773 63.6097L105.909 63.6536L105.912 63.5886C105.706 63.4759 105.507 63.311 105.313 63.094C105.119 62.8769 104.961 62.6016 104.841 62.2681C104.72 61.9346 104.668 61.5387 104.686 61.0805ZM105.971 61.4824C105.954 61.9299 106.028 62.3157 106.192 62.6401C106.357 62.968 106.578 63.2205 106.857 63.3975C107.139 63.5782 107.444 63.6749 107.772 63.6876L108.844 63.729C108.789 63.669 108.739 63.5551 108.695 63.3871C108.654 63.223 108.62 63.0355 108.592 62.8249C108.567 62.6143 108.545 62.4093 108.523 62.2097C108.506 62.0103 108.49 61.8435 108.478 61.7093C108.45 61.3939 108.394 61.1044 108.311 60.841C108.227 60.5812 108.099 60.3703 107.928 60.2084C107.761 60.0501 107.533 59.9654 107.244 59.9543C106.844 59.9388 106.535 60.0751 106.318 60.363C106.105 60.6511 105.989 61.0242 105.971 61.4824Z" fill="#B13710"/>
<path d="M100.584 69.1672C100.727 68.5222 100.936 67.9859 101.208 67.5583C101.48 67.1342 101.788 66.8069 102.132 66.5764C102.475 66.3458 102.829 66.1951 103.192 66.1244L103.45 67.6078C103.274 67.6685 103.082 67.7589 102.874 67.879C102.661 68.0019 102.463 68.1871 102.278 68.4346C102.093 68.6856 101.952 69.0296 101.854 69.4666C101.721 70.0658 101.757 70.5936 101.963 71.0499C102.165 71.5055 102.583 71.8039 103.217 71.9451L104.814 72.3005L104.836 72.2C104.685 72.0664 104.523 71.8862 104.352 71.6594C104.179 71.4361 104.05 71.1521 103.964 70.8074C103.878 70.4627 103.89 70.0419 104.001 69.5449C104.144 68.9034 104.422 68.3587 104.836 67.9108C105.253 67.4672 105.789 67.1612 106.445 66.9926C107.103 66.8283 107.863 66.8423 108.727 67.0345C109.591 67.2267 110.298 67.5377 110.85 67.9675C111.401 68.4009 111.783 68.9113 111.996 69.4989C112.213 70.0872 112.249 70.7074 112.104 71.3594C111.991 71.8635 111.816 72.2517 111.578 72.5242C111.343 72.7975 111.096 72.9958 110.835 73.1191C110.574 73.2459 110.348 73.3381 110.158 73.3956L110.132 73.5119L111.448 73.8049L111.103 75.354L102.803 73.5065C102.105 73.3511 101.569 73.0615 101.193 72.6376C100.818 72.2137 100.584 71.7012 100.492 71.1C100.4 70.5023 100.43 69.858 100.584 69.1672ZM105.235 70.1857C105.133 70.6404 105.154 71.0481 105.295 71.4088C105.44 71.7739 105.693 72.0818 106.055 72.3326C106.42 72.5877 106.883 72.7776 107.443 72.9023C107.989 73.0239 108.489 73.05 108.941 72.9804C109.393 72.9108 109.77 72.7451 110.072 72.4832C110.378 72.2221 110.583 71.8606 110.685 71.3989C110.791 70.9231 110.756 70.4991 110.58 70.127C110.407 69.7556 110.129 69.4422 109.746 69.1867C109.362 68.9348 108.911 68.7511 108.393 68.6358C107.861 68.5174 107.376 68.4945 106.938 68.5672C106.5 68.6399 106.133 68.8097 105.837 69.0767C105.54 69.3473 105.339 69.7169 105.235 70.1857Z" fill="#B13710"/>
<path d="M101.067 77.7595C101.395 77.0082 101.837 76.4312 102.395 76.0285C102.955 75.6305 103.592 75.412 104.306 75.373C105.022 75.3387 105.776 75.4941 106.567 75.8392C107.348 76.1799 107.973 76.6259 108.441 77.177C108.909 77.7314 109.195 78.3447 109.299 79.0167C109.403 79.6921 109.3 80.3839 108.991 81.0921C108.803 81.5224 108.55 81.9084 108.232 82.2501C107.913 82.5918 107.532 82.8567 107.087 83.0449C106.643 83.2331 106.137 83.3138 105.569 83.2869C105.005 83.2615 104.377 83.0979 103.686 82.7961L103.159 82.5666L105.804 76.5049L106.916 76.99L104.906 81.5971C105.297 81.7674 105.677 81.8389 106.048 81.8114C106.421 81.7854 106.759 81.6666 107.06 81.4552C107.359 81.2471 107.593 80.9511 107.76 80.5672C107.942 80.1501 107.998 79.7413 107.929 79.3407C107.861 78.9448 107.701 78.5911 107.446 78.2793C107.194 77.9724 106.878 77.7359 106.497 77.5698L105.629 77.1908C105.119 76.9685 104.646 76.8687 104.211 76.8915C103.774 76.9176 103.391 77.0517 103.06 77.2938C102.734 77.5372 102.476 77.8758 102.287 78.3093C102.164 78.5907 102.092 78.8645 102.07 79.1308C102.052 79.3986 102.087 79.6522 102.175 79.8918C102.264 80.1313 102.408 80.3477 102.607 80.541L101.741 81.8355C101.376 81.5425 101.102 81.1826 100.918 80.7556C100.736 80.3334 100.654 79.8663 100.672 79.3544C100.693 78.8472 100.824 78.3156 101.067 77.7595Z" fill="#B13710"/>
<path d="M102.018 86.8731L97.9503 84.0705L98.8691 82.737L105.72 87.4571L104.838 88.7371L103.723 87.9689L103.665 88.0536C103.919 88.4612 104.04 88.9087 104.029 89.3963C104.015 89.8869 103.831 90.3894 103.477 90.9038C103.155 91.3706 102.775 91.7118 102.337 91.9275C101.902 92.1452 101.426 92.2185 100.91 92.1475C100.393 92.0765 99.852 91.8464 99.2871 91.4571L94.9296 88.4548L95.8484 87.1213L100.045 90.0129C100.542 90.3551 101.019 90.4931 101.477 90.427C101.937 90.3629 102.324 90.1049 102.635 89.6529C102.848 89.3437 102.971 89.0226 103.003 88.6895C103.033 88.3595 102.967 88.0354 102.804 87.7175C102.643 87.4045 102.381 87.1231 102.018 86.8731Z" fill="#B13710"/>
<path d="M85.3628 97.2466L86.8957 96.3486L89.058 107.938L87.3896 108.915L78.3386 101.361L79.8715 100.463L87.1657 106.711L87.2405 106.667L85.3628 97.2466ZM87.3013 101.145L82.3288 104.058L81.617 102.843L86.5896 99.9302L87.3013 101.145Z" fill="#B13710"/>
<path d="M77.2914 101.667L80.795 112.191L79.2584 112.703L77.9565 108.792L77.864 108.823C77.8297 109.017 77.7645 109.25 77.6685 109.522C77.5725 109.793 77.4022 110.059 77.1578 110.32C76.9145 110.583 76.5478 110.797 76.0579 110.96C75.4207 111.172 74.7984 111.2 74.191 111.045C73.5836 110.889 73.0368 110.556 72.5505 110.044C72.0609 109.533 71.6741 108.851 71.3901 107.998C71.1061 107.145 71.0048 106.367 71.0861 105.662C71.1686 104.961 71.4035 104.363 71.7908 103.869C72.1792 103.378 72.692 103.027 73.3293 102.815C73.8089 102.655 74.228 102.605 74.5865 102.664C74.9416 102.725 75.2407 102.835 75.4839 102.994C75.727 103.152 75.9228 103.3 76.0712 103.437L76.1996 103.395L75.7908 102.166L77.2914 101.667ZM77.0995 106.115C76.9147 105.56 76.6723 105.1 76.3721 104.736C76.0719 104.371 75.7301 104.122 75.3464 103.987C74.964 103.855 74.5518 103.863 74.1098 104.01C73.6507 104.163 73.3075 104.413 73.0801 104.758C72.8539 105.108 72.7321 105.519 72.7148 105.993C72.6941 106.468 72.7715 106.97 72.9472 107.497C73.1205 108.018 73.355 108.459 73.6506 108.821C73.9428 109.185 74.2847 109.434 74.6763 109.57C75.0644 109.707 75.4898 109.699 75.9523 109.545C76.3977 109.397 76.7363 109.157 76.9683 108.824C77.1968 108.493 77.3214 108.096 77.3421 107.632C77.3628 107.169 77.282 106.663 77.0995 106.115Z" fill="#B13710"/>
<path d="M63.7629 111.268L65.1807 110.808C65.2674 110.985 65.3887 111.149 65.5445 111.299C65.6967 111.449 65.8911 111.562 66.1278 111.638C66.3645 111.715 66.6492 111.73 66.9818 111.683C67.4359 111.62 67.8008 111.465 68.0763 111.219C68.3523 110.976 68.4681 110.696 68.4237 110.377C68.3853 110.102 68.2524 109.894 68.0251 109.755C67.7978 109.615 67.4496 109.523 66.9804 109.479L65.6296 109.362C64.847 109.292 64.2443 109.101 63.8215 108.788C63.3986 108.475 63.1465 108.028 63.0652 107.445C62.9963 106.951 63.0779 106.491 63.3101 106.065C63.5392 105.643 63.8925 105.288 64.3699 104.998C64.8436 104.71 65.4131 104.519 66.0783 104.426C67.0009 104.298 67.7812 104.389 68.419 104.701C69.0573 105.017 69.4936 105.53 69.7277 106.241L68.2104 106.694C68.0574 106.303 67.8163 106.025 67.4869 105.86C67.1581 105.698 66.7522 105.65 66.2695 105.718C65.7438 105.791 65.3388 105.959 65.0545 106.221C64.7708 106.487 64.6511 106.778 64.6955 107.097C64.7315 107.354 64.8582 107.557 65.0758 107.705C65.2898 107.854 65.5997 107.946 66.0056 107.98L67.443 108.091C68.2363 108.159 68.8438 108.359 69.2656 108.69C69.6838 109.022 69.9338 109.481 70.0156 110.068C70.0835 110.554 70.007 110.998 69.7862 111.401C69.5653 111.804 69.2295 112.141 68.7787 112.411C68.3284 112.686 67.794 112.866 67.1753 112.952C66.2848 113.077 65.5569 112.981 64.9916 112.666C64.4268 112.355 64.0173 111.889 63.7629 111.268Z" fill="#B13710"/>
<path d="M58.9219 104.825C59.4487 104.845 59.9212 104.961 60.3395 105.172C60.7576 105.387 61.0839 105.687 61.3183 106.072C61.5492 106.456 61.6541 106.921 61.6331 107.466C61.615 107.935 61.5098 108.318 61.3177 108.614C61.1256 108.91 60.8728 109.14 60.5593 109.305C60.2458 109.47 59.8978 109.591 59.5155 109.666C59.1332 109.742 58.7444 109.795 58.3493 109.827C57.8492 109.866 57.4433 109.897 57.1316 109.921C56.8197 109.949 56.5918 110.003 56.4477 110.084C56.3037 110.166 56.2279 110.304 56.2203 110.498L56.2189 110.536C56.2006 111.009 56.32 111.38 56.577 111.65C56.8303 111.92 57.2186 112.065 57.7418 112.086C58.2866 112.107 58.7207 112.002 59.0439 111.773C59.3634 111.547 59.5883 111.29 59.7187 111.002L61.2261 111.407C61.0262 111.905 60.7471 112.303 60.3887 112.6C60.0266 112.9 59.6155 113.112 59.1555 113.235C58.6953 113.362 58.2144 113.416 57.7129 113.396C57.3809 113.383 57.0307 113.33 56.6621 113.236C56.2898 113.146 55.9452 112.992 55.6284 112.774C55.308 112.555 55.0505 112.251 54.856 111.86C54.6614 111.473 54.5758 110.977 54.5992 110.371L54.8123 104.85L56.3927 104.911L56.3488 106.048L56.4138 106.05C56.5265 105.845 56.6914 105.645 56.9085 105.452C57.1255 105.258 57.4008 105.1 57.7343 104.979C58.0678 104.859 58.4637 104.807 58.9219 104.825ZM58.52 106.11C58.0726 106.093 57.6867 106.166 57.3623 106.331C57.0344 106.495 56.7819 106.717 56.6049 106.995C56.4242 107.278 56.3275 107.583 56.3148 107.911L56.2734 108.983C56.3334 108.927 56.4474 108.877 56.6153 108.833C56.7795 108.793 56.9669 108.758 57.1775 108.73C57.3881 108.706 57.5931 108.683 57.7927 108.662C57.9921 108.644 58.1589 108.629 58.2931 108.616C58.6086 108.589 58.898 108.533 59.1614 108.449C59.4212 108.365 59.6321 108.238 59.7941 108.067C59.9523 107.9 60.037 107.672 60.0481 107.383C60.0636 106.983 59.9274 106.674 59.6394 106.457C59.3514 106.243 58.9782 106.128 58.52 106.11Z" fill="#B13710"/>
<path d="M50.835 100.723C51.48 100.866 52.0163 101.074 52.4439 101.347C52.868 101.619 53.1953 101.927 53.4259 102.27C53.6564 102.614 53.8071 102.968 53.8779 103.331L52.3944 103.589C52.3338 103.413 52.2434 103.221 52.1232 103.013C52.0003 102.8 51.8151 102.602 51.5676 102.417C51.3167 102.232 50.9726 102.091 50.5356 101.993C49.9364 101.86 49.4086 101.896 48.9523 102.102C48.4967 102.303 48.1984 102.722 48.0571 103.356L47.7018 104.953L47.8022 104.975C47.9358 104.824 48.116 104.662 48.3429 104.491C48.5662 104.318 48.8502 104.189 49.1948 104.103C49.5395 104.017 49.9603 104.029 50.4573 104.14C51.0988 104.283 51.6435 104.561 52.0914 104.975C52.535 105.392 52.8411 105.928 53.0097 106.584C53.1739 107.242 53.16 108.002 52.9678 108.866C52.7756 109.729 52.4645 110.437 52.0347 110.989C51.6014 111.54 51.0909 111.922 50.5034 112.135C49.915 112.352 49.2948 112.388 48.6428 112.242C48.1388 112.13 47.7505 111.955 47.478 111.717C47.2047 111.482 47.0064 111.235 46.8831 110.974C46.7563 110.713 46.6642 110.487 46.6067 110.297L46.4903 110.271L46.1973 111.587L44.6483 111.242L46.4958 102.942C46.6511 102.244 46.9407 101.707 47.3646 101.332C47.7885 100.957 48.3011 100.723 48.9023 100.631C49.5 100.538 50.1442 100.569 50.835 100.723ZM49.8165 105.373C49.3619 105.272 48.9542 105.293 48.5934 105.434C48.2283 105.579 47.9204 105.832 47.6696 106.194C47.4145 106.559 47.2246 107.022 47.0999 107.582C46.9783 108.128 46.9523 108.628 47.0218 109.08C47.0914 109.531 47.2571 109.909 47.519 110.211C47.7802 110.517 48.1416 110.721 48.6033 110.824C49.0791 110.93 49.5031 110.895 49.8752 110.719C50.2466 110.546 50.56 110.268 50.8155 109.885C51.0674 109.501 51.2511 109.05 51.3664 108.532C51.4849 107.999 51.5077 107.514 51.4351 107.077C51.3624 106.639 51.1925 106.272 50.9255 105.975C50.655 105.678 50.2853 105.478 49.8165 105.373Z" fill="#B13710"/>
<path d="M42.2428 101.206C42.9941 101.534 43.5711 101.977 43.9738 102.535C44.3718 103.094 44.5903 103.731 44.6293 104.446C44.6636 105.162 44.5082 105.915 44.1631 106.706C43.8224 107.487 43.3765 108.112 42.8253 108.581C42.2709 109.048 41.6577 109.334 40.9856 109.439C40.3103 109.542 39.6184 109.439 38.9102 109.13C38.4799 108.943 38.0939 108.69 37.7523 108.371C37.4106 108.053 37.1456 107.671 36.9574 107.227C36.7692 106.782 36.6885 106.276 36.7154 105.709C36.7409 105.145 36.9045 104.517 37.2062 103.825L37.4358 103.299L43.4974 105.943L43.0123 107.055L38.4053 105.045C38.2349 105.436 38.1634 105.817 38.1909 106.187C38.217 106.561 38.3357 106.898 38.5471 107.199C38.7552 107.499 39.0512 107.732 39.4352 107.9C39.8522 108.082 40.261 108.138 40.6616 108.068C41.0575 108.001 41.4113 107.84 41.723 107.586C42.03 107.334 42.2665 107.017 42.4325 106.637L42.8115 105.768C43.0338 105.258 43.1336 104.786 43.1108 104.35C43.0847 103.914 42.9506 103.53 42.7086 103.2C42.4651 102.873 42.1265 102.615 41.693 102.426C41.4117 102.303 41.1378 102.231 40.8715 102.209C40.6037 102.191 40.3501 102.226 40.1106 102.315C39.871 102.403 39.6546 102.547 39.4613 102.747L38.1668 101.88C38.4598 101.516 38.8198 101.242 39.2467 101.057C39.6689 100.875 40.136 100.793 40.648 100.812C41.1552 100.832 41.6868 100.964 42.2428 101.206Z" fill="#B13710"/>
<path d="M33.1291 102.157L35.9317 98.089L37.2652 99.0078L32.5451 105.859L31.2651 104.977L32.0333 103.862L31.9486 103.803C31.541 104.057 31.0935 104.179 30.6059 104.167C30.1153 104.154 29.6128 103.97 29.0984 103.615C28.6316 103.294 28.2904 102.914 28.0747 102.476C27.857 102.041 27.7837 101.565 27.8547 101.048C27.9257 100.532 28.1558 99.9907 28.5451 99.4258L31.5474 95.0682L32.881 95.9871L29.9893 100.184C29.6471 100.681 29.5091 101.158 29.5752 101.615C29.6393 102.076 29.8973 102.462 30.3493 102.774C30.6585 102.987 30.9796 103.109 31.3127 103.141C31.6427 103.172 31.9668 103.105 32.2847 102.943C32.5977 102.781 32.8791 102.519 33.1291 102.157Z" fill="#B13710"/>
</svg>
